<svg width="96" height="96" viewBox="0 0 96 96" xmlns="http://www.w3.org/2000/svg">
  <defs>
    <linearGradient id="cityGrad" x1="0%" y1="0%" x2="100%" y2="100%">
      <stop offset="0%" style="stop-color:#22c55e"/>
      <stop offset="100%" style="stop-color:#15803d"/>
    </linearGradient>
  </defs>
  <rect width="96" height="96" fill="url(#cityGrad)" rx="12"/>
  
  <!-- City buildings -->
  <g fill="white" opacity="0.9">
    <rect x="16" y="48" width="12" height="32"/>
    <rect x="32" y="32" width="12" height="48"/>
    <rect x="48" y="40" width="12" height="40"/>
    <rect x="64" y="24" width="12" height="56"/>
    
    <!-- Windows -->
    <g fill="#22c55e">
      <rect x="18" y="52" width="2" height="2"/>
      <rect x="22" y="52" width="2" height="2"/>
      <rect x="18" y="60" width="2" height="2"/>
      <rect x="22" y="60" width="2" height="2"/>
      
      <rect x="34" y="36" width="2" height="2"/>
      <rect x="38" y="36" width="2" height="2"/>
      <rect x="34" y="44" width="2" height="2"/>
      <rect x="38" y="44" width="2" height="2"/>
      
      <rect x="50" y="44" width="2" height="2"/>
      <rect x="54" y="44" width="2" height="2"/>
      <rect x="50" y="52" width="2" height="2"/>
      <rect x="54" y="52" width="2" height="2"/>
      
      <rect x="66" y="28" width="2" height="2"/>
      <rect x="70" y="28" width="2" height="2"/>
      <rect x="66" y="36" width="2" height="2"/>
      <rect x="70" y="36" width="2" height="2"/>
    </g>
  </g>
</svg>
