<svg width="96" height="96" viewBox="0 0 96 96" xmlns="http://www.w3.org/2000/svg">
  <defs>
    <linearGradient id="achieveGrad" x1="0%" y1="0%" x2="100%" y2="100%">
      <stop offset="0%" style="stop-color:#a855f7"/>
      <stop offset="100%" style="stop-color:#7c3aed"/>
    </linearGradient>
  </defs>
  <rect width="96" height="96" fill="url(#achieveGrad)" rx="12"/>
  
  <!-- Trophy -->
  <g fill="white" opacity="0.9">
    <!-- Cup -->
    <path d="M32,32 L64,32 L60,56 L36,56 Z"/>
    <!-- Handles -->
    <path d="M28,36 Q24,36 24,40 Q24,44 28,44"/>
    <path d="M68,36 Q72,36 72,40 Q72,44 68,44"/>
    <!-- Base -->
    <rect x="40" y="56" width="16" height="8"/>
    <rect x="36" y="64" width="24" height="4"/>
  </g>
  
  <!-- Star -->
  <polygon points="48,24 52,36 64,36 54,44 58,56 48,48 38,56 42,44 32,36 44,36" fill="#fbbf24"/>
</svg>
